<svg width="351" height="506" viewBox="0 0 521 676" fill="none" xmlns="http://www.w3.org/2000/svg">
<g clip-path="url(#clip0)">
<path d="M246.162 572.291H125.471V678.625H246.162V572.291Z" fill="#F4D1DB"/>
<g filter="url(#filter0_d)">
<path d="M15.5357 360.026C25.6928 355.247 29.8751 367.195 29.8751 367.195L38.8462 443.062C38.8462 443.062 28.6803 447.439 25.0954 446.244C21.5106 445.049 17.3286 441.867 17.3285 428.725C17.3283 415.583 3.09795 365.878 15.5357 360.026Z" fill="#F4D1DB"/>
</g>
<path d="M327.419 298.479C327.419 376.012 264.557 349.257 187.011 349.257C109.467 349.257 46.6046 376.012 46.6046 298.479C62.7365 221.417 114.717 195.73 187.011 215.443C268.866 196.924 308.897 222.014 327.419 298.479Z" fill="#F98B8B"/>
<g filter="url(#filter1_dd)">
<path d="M29.8752 370.888C29.8752 489.378 93.4855 585.434 185.219 585.434C276.953 585.434 345.343 489.378 345.343 370.888C345.343 252.397 345.343 261.831 198.961 261.831C29.8752 261.831 29.8752 252.397 29.8752 370.888Z" fill="#F4D1DB"/>
</g>
<path d="M292.765 289.628C307.814 239.258 311.781 225.981 336.714 142.524C361.648 59.0687 361.34 60.1009 379.296 -1.90735e-06C453.153 28.2935 503.129 90.6031 475.255 183.903C445.328 284.07 372.89 294.855 292.765 289.628Z" fill="#F4D1DB"/>
<path d="M295.752 265.835L317.859 254.484L339.368 249.705V274.795L342.356 302.275H307.104L295.752 265.835Z" fill="#F4D1DB"/>
<path d="M316.76 283.193C316.76 230.307 338.079 107.739 361.38 153.14C373.932 30.795 383.078 28.5352 395.045 4.49746C461.495 30.5788 505.298 91.0449 477.424 184.345C447.497 284.512 366.948 298.725 316.76 283.193Z" fill="#070707"/>
<path d="M34.6551 619.484C51.3843 612.913 69.3088 612.913 69.3088 612.913C89.623 612.913 121.887 615.303 121.887 615.303C127.855 648.819 147.217 665.55 187.934 665.55C228.65 665.55 235.651 645.643 249.747 615.303C249.747 615.303 305.909 615.303 328.016 615.303C350.123 615.303 369.84 621.277 379.124 640.092C388.409 658.906 388.959 686.989 388.959 686.989H341.746H30.0377H0.00140636C0.00140636 686.989 -0.213612 661.826 4.67372 650.811C9.56104 639.795 17.9257 626.056 34.6551 619.484Z" fill="#2080B7"/>
<path d="M121.289 615.932C128.465 678.657 238.395 685.794 248.547 615.932" stroke="black" stroke-width="5"/>
<path d="M206.728 494.432C206.728 494.432 274.243 509.367 279.023 498.017C283.914 486.402 264.086 488.458 268.268 496.224" stroke="black" stroke-width="6"/>
<path d="M165.089 494.432C165.089 494.432 97.5743 509.367 92.7945 498.017C87.9035 486.402 107.731 488.458 103.549 496.224" stroke="black" stroke-width="6"/>
<path d="M109.937 431.309C126.436 431.309 139.811 417.936 139.811 401.44C139.811 384.944 126.436 371.571 109.937 371.571C93.4383 371.571 80.0634 384.944 80.0634 401.44C80.0634 417.936 93.4383 431.309 109.937 431.309Z" fill="white"/>
<path d="M256.916 431.309C273.415 431.309 286.79 417.936 286.79 401.44C286.79 384.944 273.415 371.571 256.916 371.571C240.417 371.571 227.042 384.944 227.042 401.44C227.042 417.936 240.417 431.309 256.916 431.309Z" fill="white"/>
<path d="M110.535 401.44C118.784 401.44 125.472 394.754 125.472 386.506C125.472 378.258 118.784 371.571 110.535 371.571C102.285 371.571 95.5978 378.258 95.5978 386.506C95.5978 394.754 102.285 401.44 110.535 401.44Z" fill="black"/>
<path d="M256.319 401.44C264.568 401.44 271.256 394.754 271.256 386.506C271.256 378.258 264.568 371.571 256.319 371.571C248.069 371.571 241.382 378.258 241.382 386.506C241.382 394.754 248.069 401.44 256.319 401.44Z" fill="black"/>
<path d="M97.9877 462.373C129.006 462.373 154.151 437.232 154.151 406.219C154.151 375.206 129.006 350.065 97.9877 350.065C66.9698 350.065 41.8248 375.206 41.8248 406.219C41.8248 437.232 66.9698 462.373 97.9877 462.373Z" stroke="#200B00" stroke-width="6"/>
<path d="M324.431 406.364C324.431 437.376 299.287 462.518 268.268 462.518C237.251 462.518 212.106 437.376 212.106 406.364C212.106 375.35 237.251 350.21 268.268 350.21C299.287 350.21 324.431 375.35 324.431 406.364Z" stroke="#200B00" stroke-width="6"/>
<path d="M154.15 401.695C175.062 386.76 195.687 387.279 212.703 401.695" stroke="#200B00" stroke-width="4"/>
<path d="M68.1138 332.741C100.78 324.434 116.509 320.794 148.175 332.741" stroke="black" stroke-width="4"/>
<path d="M222.263 320.955C248.552 296.462 278.426 298.852 305.909 320.955" stroke="black" stroke-width="4"/>
<g filter="url(#filter2_d)">
<g filter="url(#filter3_d)">
<path d="M339.319 390.856C337.994 385.544 353.978 359.289 355.432 378.507C356.887 397.725 355.432 470.316 355.432 470.316H339.319V390.856Z" fill="#F4D1DB"/>
</g>
<g filter="url(#filter4_d)">
<path d="M285.152 469.052C282.738 468.745 274.804 464.024 274.481 462.622C274.157 461.218 274.481 451.079 280.229 452.773C285.978 454.469 349.848 460.905 349.848 460.905C351.426 469.232 347.281 482.451 347.281 482.451C347.281 482.451 287.567 469.358 285.152 469.052Z" fill="#F4D1DB"/>
</g>
<g filter="url(#filter5_d)">
<path d="M254.824 516.331C253.66 520.554 228.205 528.461 235.337 515.105C242.468 501.75 275.48 455.299 275.48 455.299L289.569 464.568L254.824 516.331Z" fill="#F4D1DB"/>
</g>
<g filter="url(#filter6_d)">
<path d="M297.808 514.943L321.444 547.993C311.93 563.782 308.947 573.248 308.137 591.311L316.292 689.378H270.362V601.896L269.616 591.311V572.908C269.616 572.908 267.929 559.756 269.616 551.732C270.864 545.799 271.46 541.849 275.053 537.46C278.079 533.764 284.553 523.109 288.644 521.369C293.435 519.332 297.808 514.943 297.808 514.943Z" fill="#F4D1DB"/>
</g>
<g filter="url(#filter7_d)">
<path d="M343.039 518.5C324.552 560.143 305.246 579.425 300.79 578.426C273.213 572.247 300.79 507.324 300.79 507.324C300.79 507.324 330.015 484.045 349.04 467.617C364.474 469.271 354.433 492.836 343.039 518.5Z" fill="#F4D1DB"/>
</g>
<path d="M281.596 533.079L300.07 512.52L309.788 508.933L312.631 534.42L304.864 579.76L283.073 586.2L273.772 568.686L272.825 557.353L279.379 538.989L281.596 533.079Z" fill="#F4D1DB"/>
<g filter="url(#filter8_d)">
<path d="M291.957 481.855C289.889 481.922 284.301 477.441 283.827 476.106C283.352 474.769 280.091 466.769 285.467 466.531C290.842 466.294 345.007 463.904 345.007 463.904L345.982 485.579C345.982 485.579 294.026 481.788 291.957 481.855Z" fill="#F4D1DB"/>
</g>
<g filter="url(#filter9_d)">
<path d="M284.129 515.916C284.498 519.286 264.02 528.975 265.99 517.819C267.958 506.662 282.275 466.668 282.275 466.668L298.224 471.646L284.129 515.916Z" fill="#F4D1DB"/>
</g>
<g filter="url(#filter10_d)">
<path d="M250.973 512.412C247.857 513.284 238.441 511.078 237.437 509.955C236.432 508.832 229.785 502.272 237.869 499.945C245.953 497.617 327.415 474.163 327.415 474.163L333.534 494.996C333.534 494.996 254.089 511.54 250.973 512.412Z" fill="#F4D1DB"/>
</g>
<path d="M307.906 480.681L351.459 463.904L355.272 469.593C355.867 472.309 356.779 480.152 357.374 482.868H355.272L353.746 490.455L349.933 494.879L299.09 508.787L307.906 480.681Z" fill="#F4D1DB"/>
<path d="M275.776 455.568L277.072 453.644L299.09 456.209V462.622L290.67 464.545L275.776 462.622V455.568Z" fill="#F4D1DB"/>
<path d="M282.252 466.469H305.565L304.918 475.445L294.556 481.216L291.318 481.857L282.252 478.305V466.469Z" fill="#F4D1DB"/>
</g>
<path d="M162.515 480.295C181.528 492.584 191.981 492.198 210.313 480.295" stroke="black" stroke-width="3"/>
<path d="M122.987 86.2622L123.935 86.9709L108.964 106.993L88.9418 92.0218L89.6505 91.074C90.3949 90.0784 91.5046 89.4193 92.7349 89.2415L119.51 85.3768C120.741 85.1993 121.991 85.5178 122.987 86.2622ZM113.033 111.987C111.489 114.052 108.537 114.478 106.472 112.934L85.1991 97.0272L61.807 128.311C60.2567 130.385 60.6807 133.322 62.7541 134.872L135.333 189.142C137.406 190.692 140.344 190.268 141.894 188.195L181.193 135.638C182.743 133.564 182.319 130.627 180.246 129.077L128.94 90.7136L113.033 111.987ZM136.057 159.637C136.081 159.773 136.079 159.913 136.049 160.048C136.019 160.183 135.963 160.311 135.883 160.425C135.804 160.538 135.703 160.635 135.586 160.71C135.47 160.784 135.339 160.835 135.203 160.859L118.104 163.893C117.962 163.918 117.816 163.914 117.676 163.881C117.536 163.847 117.404 163.786 117.288 163.699C117.173 163.613 117.076 163.504 117.004 163.379C116.933 163.253 116.888 163.115 116.872 162.972L114.946 145.713C114.931 145.575 114.943 145.436 114.981 145.303C115.02 145.17 115.084 145.045 115.17 144.937C115.257 144.829 115.364 144.739 115.485 144.672C115.606 144.605 115.74 144.563 115.877 144.547L121.434 143.928C121.575 143.912 121.717 143.925 121.852 143.965C121.988 144.005 122.113 144.072 122.222 144.162C122.331 144.252 122.421 144.363 122.486 144.489C122.552 144.614 122.591 144.751 122.602 144.892L123.446 155.464L133.825 153.284C133.964 153.255 134.106 153.254 134.245 153.281C134.384 153.308 134.515 153.363 134.632 153.442C134.75 153.521 134.85 153.623 134.927 153.741C135.003 153.86 135.056 153.992 135.081 154.131L136.057 159.637V159.637ZM149.953 157.517L145.495 160.879C145.272 161.047 144.991 161.12 144.714 161.081C144.437 161.043 144.186 160.895 144.018 160.672L118.101 126.31C117.933 126.087 117.86 125.805 117.899 125.528C117.938 125.251 118.085 125.001 118.308 124.833L122.766 121.471C122.876 121.387 123.002 121.327 123.136 121.292C123.27 121.257 123.41 121.249 123.547 121.268C123.684 121.288 123.816 121.334 123.936 121.404C124.055 121.474 124.159 121.567 124.243 121.678L150.159 156.04C150.243 156.151 150.304 156.277 150.338 156.411C150.373 156.545 150.381 156.684 150.362 156.821C150.343 156.959 150.297 157.091 150.227 157.21C150.156 157.329 150.063 157.434 149.953 157.517V157.517ZM151.389 119.378L153.315 136.637C153.33 136.775 153.318 136.914 153.28 137.047C153.241 137.18 153.177 137.304 153.09 137.413C153.004 137.521 152.897 137.611 152.776 137.678C152.654 137.745 152.521 137.787 152.384 137.802L146.827 138.422C146.686 138.438 146.544 138.425 146.409 138.385C146.273 138.345 146.147 138.277 146.038 138.187C145.929 138.097 145.84 137.987 145.774 137.861C145.709 137.736 145.67 137.599 145.658 137.458L144.815 126.886L134.436 129.066C134.297 129.095 134.155 129.096 134.016 129.069C133.877 129.042 133.746 128.987 133.629 128.908C133.512 128.829 133.411 128.727 133.335 128.609C133.258 128.49 133.205 128.357 133.18 128.218L132.204 122.713C132.18 122.577 132.182 122.437 132.212 122.301C132.242 122.166 132.298 122.038 132.378 121.925C132.457 121.811 132.558 121.714 132.675 121.64C132.791 121.565 132.922 121.514 133.058 121.49L150.157 118.456C150.299 118.431 150.445 118.435 150.585 118.469C150.725 118.502 150.857 118.564 150.973 118.65C151.088 118.737 151.185 118.846 151.256 118.971C151.328 119.096 151.373 119.235 151.389 119.378V119.378Z" fill="url(#paint0_linear)"/>
<path d="M249.49 151.774L234.288 130.066L241.527 125L256.725 146.708L249.49 151.774Z" fill="url(#paint1_linear)"/>
<path d="M241.169 162.992L233.572 152.132L197.391 177.466L204.988 188.317L197.753 193.388L177.49 164.441L184.724 159.375L192.321 170.231L228.502 144.897L220.905 134.041L228.14 128.975L248.404 157.917L241.169 162.988V162.992Z" fill="url(#paint2_linear)"/>
<path d="M251.659 139.469L258.893 134.403L253.827 127.169L246.593 132.234L251.659 139.469Z" fill="url(#paint3_linear)"/>
<path d="M191.605 192.306L176.403 170.598L169.169 175.664L184.366 197.372L191.605 192.306V192.306Z" fill="url(#paint4_linear)"/>
<path d="M179.3 190.137L172.066 195.203L167 187.968L174.235 182.902L179.3 190.137Z" fill="url(#paint5_linear)"/>
<g clip-path="url(#clip1)">
<path d="M246.519 70.9243L251.409 76.0852C252.666 77.4123 253.17 79.0567 252.921 81.0185C252.672 82.9803 251.751 84.7149 250.16 86.2225C248.569 87.7301 246.772 88.5698 244.77 88.7414C242.767 88.913 241.137 88.3353 239.88 87.0082L234.991 81.8473C225.693 88.5108 215.818 91.828 205.364 91.7989C194.91 91.7698 186.377 88.2655 179.764 81.286C178.507 79.9589 178.003 78.3145 178.252 76.3527C178.502 74.391 179.437 72.6421 181.058 71.106C182.679 69.57 184.476 68.7304 186.449 68.5872C188.421 68.444 190.036 69.036 191.293 70.363C196.229 75.5731 202.695 77.8879 210.692 77.3074C218.688 76.727 225.868 73.4215 232.233 67.3911C238.598 61.3608 242.286 54.369 243.297 46.4159C244.308 38.4627 242.345 31.8811 237.409 26.6711C236.151 25.344 235.662 23.6854 235.942 21.6952C236.221 19.7049 237.156 17.956 238.748 16.4484C240.339 14.9408 242.121 14.1155 244.093 13.9723C246.065 13.8291 247.68 14.4211 248.938 15.7481C255.55 22.7276 258.589 31.4374 258.054 41.8775C257.52 52.3176 253.675 61.9998 246.519 70.9243ZM222.998 40.3248L231.644 32.1326C235.37 36.0647 236.855 40.9999 236.1 46.9383C235.345 52.8766 232.581 58.1072 227.808 62.63C223.034 67.1528 217.647 69.6451 211.646 70.1069C205.646 70.5688 200.783 68.8336 197.058 64.9015L205.704 56.7093C206.485 55.9697 206.939 55.0962 207.067 54.0889C207.195 53.0815 206.957 52.2583 206.351 51.6193C205.746 50.9803 204.937 50.6976 203.924 50.7711C202.911 50.8447 202.014 51.2512 201.234 51.9908L192.587 60.183L188.117 55.4645L196.763 47.2723C197.544 46.5327 197.998 45.6592 198.126 44.6518C198.254 43.6444 198.016 42.8212 197.41 42.1823C196.805 41.5433 195.996 41.2606 194.983 41.3341C193.97 41.4076 193.073 41.8142 192.293 42.5538L183.646 50.746L179.175 46.0275L187.822 37.8352C188.603 37.0957 189.057 36.2222 189.185 35.2148C189.313 34.2074 189.074 33.3842 188.469 32.7452C187.864 32.1063 187.055 31.8236 186.042 31.8971C185.029 31.9706 184.132 32.3772 183.352 33.1167L174.705 41.309C170.979 37.3769 169.509 32.4274 170.294 26.4606C171.079 20.4939 173.858 15.2491 178.632 10.7263C183.405 6.20348 188.777 3.72538 194.748 3.29198C200.718 2.85858 205.566 4.60792 209.292 8.54002L200.645 16.7323C199.864 17.4718 199.41 18.3453 199.282 19.3527C199.154 20.3601 199.393 21.1833 199.998 21.8223C200.603 22.4612 201.413 22.7439 202.425 22.6704C203.438 22.5969 204.335 22.1904 205.115 21.4508L213.762 13.2585L218.233 17.9771L209.586 26.1693C208.805 26.9089 208.351 27.7824 208.223 28.7898C208.095 29.7971 208.334 30.6203 208.939 31.2593C209.544 31.8983 210.354 32.181 211.366 32.1075C212.379 32.0339 213.276 31.6274 214.057 30.8878L222.703 22.6956L227.174 27.4141L218.527 35.6063C217.746 36.3459 217.292 37.2194 217.164 38.2268C217.036 39.2342 217.275 40.0574 217.88 40.6963C218.485 41.3353 219.295 41.618 220.307 41.5445C221.32 41.471 222.217 41.0644 222.998 40.3248Z" fill="url(#paint6_linear)"/>
</g>
</g>
<defs>
<filter id="filter0_d" x="6.43713" y="358.898" width="36.4091" height="95.5527" filterUnits="userSpaceOnUse" color-interpolation-filters="sRGB">
<feFlood flood-opacity="0" result="BackgroundImageFix"/>
<feColorMatrix in="SourceAlpha" type="matrix" values="0 0 0 0 0 0 0 0 0 0 0 0 0 0 0 0 0 0 127 0"/>
<feOffset dy="4"/>
<feGaussianBlur stdDeviation="2"/>
<feColorMatrix type="matrix" values="0 0 0 0 0 0 0 0 0 0 0 0 0 0 0 0 0 0 0.25 0"/>
<feBlend mode="normal" in2="BackgroundImageFix" result="effect1_dropShadow"/>
<feBlend mode="normal" in="SourceGraphic" in2="effect1_dropShadow" result="shape"/>
</filter>
<filter id="filter1_dd" x="25.8752" y="256.653" width="323.468" height="336.781" filterUnits="userSpaceOnUse" color-interpolation-filters="sRGB">
<feFlood flood-opacity="0" result="BackgroundImageFix"/>
<feColorMatrix in="SourceAlpha" type="matrix" values="0 0 0 0 0 0 0 0 0 0 0 0 0 0 0 0 0 0 127 0"/>
<feOffset dy="-1"/>
<feGaussianBlur stdDeviation="2"/>
<feColorMatrix type="matrix" values="0 0 0 0 0 0 0 0 0 0 0 0 0 0 0 0 0 0 0.25 0"/>
<feBlend mode="normal" in2="BackgroundImageFix" result="effect1_dropShadow"/>
<feColorMatrix in="SourceAlpha" type="matrix" values="0 0 0 0 0 0 0 0 0 0 0 0 0 0 0 0 0 0 127 0"/>
<feOffset dy="4"/>
<feGaussianBlur stdDeviation="2"/>
<feColorMatrix type="matrix" values="0 0 0 0 0 0 0 0 0 0 0 0 0 0 0 0 0 0 0.25 0"/>
<feBlend mode="normal" in2="effect1_dropShadow" result="effect2_dropShadow"/>
<feBlend mode="normal" in="SourceGraphic" in2="effect2_dropShadow" result="shape"/>
</filter>
<filter id="filter2_d" x="227.914" y="367.571" width="131.46" height="325.807" filterUnits="userSpaceOnUse" color-interpolation-filters="sRGB">
<feFlood flood-opacity="0" result="BackgroundImageFix"/>
<feColorMatrix in="SourceAlpha" type="matrix" values="0 0 0 0 0 0 0 0 0 0 0 0 0 0 0 0 0 0 127 0"/>
<feOffset dx="-2"/>
<feGaussianBlur stdDeviation="2"/>
<feColorMatrix type="matrix" values="0 0 0 0 0 0 0 0 0 0 0 0 0 0 0 0 0 0 0.25 0"/>
<feBlend mode="normal" in2="BackgroundImageFix" result="effect1_dropShadow"/>
<feBlend mode="normal" in="SourceGraphic" in2="effect1_dropShadow" result="shape"/>
</filter>
<filter id="filter3_d" x="335.241" y="367.571" width="24.8376" height="106.745" filterUnits="userSpaceOnUse" color-interpolation-filters="sRGB">
<feFlood flood-opacity="0" result="BackgroundImageFix"/>
<feColorMatrix in="SourceAlpha" type="matrix" values="0 0 0 0 0 0 0 0 0 0 0 0 0 0 0 0 0 0 127 0"/>
<feOffset/>
<feGaussianBlur stdDeviation="2"/>
<feColorMatrix type="matrix" values="0 0 0 0 0 0 0 0 0 0 0 0 0 0 0 0 0 0 0.25 0"/>
<feBlend mode="normal" in2="BackgroundImageFix" result="effect1_dropShadow"/>
<feBlend mode="normal" in="SourceGraphic" in2="effect1_dropShadow" result="shape"/>
</filter>
<filter id="filter4_d" x="269.395" y="448.583" width="83.8116" height="37.8682" filterUnits="userSpaceOnUse" color-interpolation-filters="sRGB">
<feFlood flood-opacity="0" result="BackgroundImageFix"/>
<feColorMatrix in="SourceAlpha" type="matrix" values="0 0 0 0 0 0 0 0 0 0 0 0 0 0 0 0 0 0 127 0"/>
<feOffset dx="-1"/>
<feGaussianBlur stdDeviation="2"/>
<feColorMatrix type="matrix" values="0 0 0 0 0 0 0 0 0 0 0 0 0 0 0 0 0 0 0.25 0"/>
<feBlend mode="normal" in2="BackgroundImageFix" result="effect1_dropShadow"/>
<feBlend mode="normal" in="SourceGraphic" in2="effect1_dropShadow" result="shape"/>
</filter>
<filter id="filter5_d" x="230.078" y="451.299" width="63.4902" height="75.2316" filterUnits="userSpaceOnUse" color-interpolation-filters="sRGB">
<feFlood flood-opacity="0" result="BackgroundImageFix"/>
<feColorMatrix in="SourceAlpha" type="matrix" values="0 0 0 0 0 0 0 0 0 0 0 0 0 0 0 0 0 0 127 0"/>
<feOffset/>
<feGaussianBlur stdDeviation="2"/>
<feColorMatrix type="matrix" values="0 0 0 0 0 0 0 0 0 0 0 0 0 0 0 0 0 0 0.25 0"/>
<feBlend mode="normal" in2="BackgroundImageFix" result="effect1_dropShadow"/>
<feBlend mode="normal" in="SourceGraphic" in2="effect1_dropShadow" result="shape"/>
</filter>
<filter id="filter6_d" x="266.866" y="513.943" width="54.5774" height="176.435" filterUnits="userSpaceOnUse" color-interpolation-filters="sRGB">
<feFlood flood-opacity="0" result="BackgroundImageFix"/>
<feColorMatrix in="SourceAlpha" type="matrix" values="0 0 0 0 0 0 0 0 0 0 0 0 0 0 0 0 0 0 127 0"/>
<feOffset dx="-1"/>
<feGaussianBlur stdDeviation="0.5"/>
<feColorMatrix type="matrix" values="0 0 0 0 0 0 0 0 0 0 0 0 0 0 0 0 0 0 0.25 0"/>
<feBlend mode="normal" in2="BackgroundImageFix" result="effect1_dropShadow"/>
<feBlend mode="normal" in="SourceGraphic" in2="effect1_dropShadow" result="shape"/>
</filter>
<filter id="filter7_d" x="286.534" y="466.617" width="70.3979" height="112.846" filterUnits="userSpaceOnUse" color-interpolation-filters="sRGB">
<feFlood flood-opacity="0" result="BackgroundImageFix"/>
<feColorMatrix in="SourceAlpha" type="matrix" values="0 0 0 0 0 0 0 0 0 0 0 0 0 0 0 0 0 0 127 0"/>
<feOffset dx="-1"/>
<feGaussianBlur stdDeviation="0.5"/>
<feColorMatrix type="matrix" values="0 0 0 0 0 0 0 0 0 0 0 0 0 0 0 0 0 0 0.25 0"/>
<feBlend mode="normal" in2="BackgroundImageFix" result="effect1_dropShadow"/>
<feBlend mode="normal" in="SourceGraphic" in2="effect1_dropShadow" result="shape"/>
</filter>
<filter id="filter8_d" x="277.414" y="459.904" width="71.568" height="29.6754" filterUnits="userSpaceOnUse" color-interpolation-filters="sRGB">
<feFlood flood-opacity="0" result="BackgroundImageFix"/>
<feColorMatrix in="SourceAlpha" type="matrix" values="0 0 0 0 0 0 0 0 0 0 0 0 0 0 0 0 0 0 127 0"/>
<feOffset dx="-1"/>
<feGaussianBlur stdDeviation="2"/>
<feColorMatrix type="matrix" values="0 0 0 0 0 0 0 0 0 0 0 0 0 0 0 0 0 0 0.25 0"/>
<feBlend mode="normal" in2="BackgroundImageFix" result="effect1_dropShadow"/>
<feBlend mode="normal" in="SourceGraphic" in2="effect1_dropShadow" result="shape"/>
</filter>
<filter id="filter9_d" x="261.856" y="462.668" width="40.3673" height="64.3693" filterUnits="userSpaceOnUse" color-interpolation-filters="sRGB">
<feFlood flood-opacity="0" result="BackgroundImageFix"/>
<feColorMatrix in="SourceAlpha" type="matrix" values="0 0 0 0 0 0 0 0 0 0 0 0 0 0 0 0 0 0 127 0"/>
<feOffset/>
<feGaussianBlur stdDeviation="2"/>
<feColorMatrix type="matrix" values="0 0 0 0 0 0 0 0 0 0 0 0 0 0 0 0 0 0 0.25 0"/>
<feBlend mode="normal" in2="BackgroundImageFix" result="effect1_dropShadow"/>
<feBlend mode="normal" in="SourceGraphic" in2="effect1_dropShadow" result="shape"/>
</filter>
<filter id="filter10_d" x="228.914" y="470.163" width="107.621" height="46.4484" filterUnits="userSpaceOnUse" color-interpolation-filters="sRGB">
<feFlood flood-opacity="0" result="BackgroundImageFix"/>
<feColorMatrix in="SourceAlpha" type="matrix" values="0 0 0 0 0 0 0 0 0 0 0 0 0 0 0 0 0 0 127 0"/>
<feOffset dx="-1"/>
<feGaussianBlur stdDeviation="2"/>
<feColorMatrix type="matrix" values="0 0 0 0 0 0 0 0 0 0 0 0 0 0 0 0 0 0 0.25 0"/>
<feBlend mode="normal" in2="BackgroundImageFix" result="effect1_dropShadow"/>
<feBlend mode="normal" in="SourceGraphic" in2="effect1_dropShadow" result="shape"/>
</filter>
<linearGradient id="paint0_linear" x1="81.4564" y1="102.033" x2="161.543" y2="161.916" gradientUnits="userSpaceOnUse">
<stop stop-color="#031CFF"/>
<stop offset="1" stop-color="#DC02FF"/>
</linearGradient>
<linearGradient id="paint1_linear" x1="245.506" y1="125" x2="245.506" y2="151.774" gradientUnits="userSpaceOnUse">
<stop/>
<stop offset="1" stop-color="#40F700"/>
</linearGradient>
<linearGradient id="paint2_linear" x1="212.947" y1="128.975" x2="212.947" y2="193.388" gradientUnits="userSpaceOnUse">
<stop/>
<stop offset="1" stop-color="#40F700"/>
</linearGradient>
<linearGradient id="paint3_linear" x1="252.743" y1="127.169" x2="252.743" y2="139.469" gradientUnits="userSpaceOnUse">
<stop/>
<stop offset="1" stop-color="#40F700"/>
</linearGradient>
<linearGradient id="paint4_linear" x1="180.387" y1="170.598" x2="180.387" y2="197.372" gradientUnits="userSpaceOnUse">
<stop/>
<stop offset="1" stop-color="#40F700"/>
</linearGradient>
<linearGradient id="paint5_linear" x1="173.15" y1="182.902" x2="173.15" y2="195.203" gradientUnits="userSpaceOnUse">
<stop/>
<stop offset="1" stop-color="#40F700"/>
</linearGradient>
<linearGradient id="paint6_linear" x1="178.587" y1="10.7689" x2="250.115" y2="86.2652" gradientUnits="userSpaceOnUse">
<stop/>
<stop offset="1" stop-color="#FFD600"/>
</linearGradient>
<clipPath id="clip0">
<rect width="521" height="730" fill="white"/>
</clipPath>
<clipPath id="clip1">
<rect width="95.29" height="104" fill="white" transform="translate(144 43.5379) rotate(-43.4541)"/>
</clipPath>
</defs>
</svg>
